<?xml version="1.0" encoding="utf-8"?>
<!-- Generator: Adobe Illustrator 27.5.0, SVG Export Plug-In . SVG Version: 6.00 Build 0)  -->
<svg version="1.1" xmlns="http://www.w3.org/2000/svg" xmlns:xlink="http://www.w3.org/1999/xlink" x="0px" y="0px"
	 viewBox="0 0 3710 3710" style="enable-background:new 0 0 3710 3710;" xml:space="preserve">
<g id="Background">
	<g>
		<g>
			<rect style="fill:#FFFFFF;" width="3710" height="3710"/>
		</g>
	</g>
</g>
<g id="Illustration">
	<g>
		<path style="fill:#F4F7FA;" d="M2984.46,986.942c-42.487-58.291-406.22-540.329-995.814-516.849
			c-29.462,1.173-604.475,31.611-816.565,409.471c-156.889,279.513,9.211,527.511-182.183,717.95
			c-166.768,165.937-371.72,56.103-474.203,190.287c-156.109,204.401,92.497,756.435,474.467,1064.299
			c394.408,317.89,1148.956,551.107,1735.42,126.98C3384.017,2502.907,3377.335,1525.946,2984.46,986.942z"/>
		<g>
			<g>
				<g>
					<linearGradient id="SVGID_1_" gradientUnits="userSpaceOnUse" x1="931.6067" y1="2902.9839" x2="964.2831" y2="2930.4617">
						<stop  offset="0" style="stop-color:#AA80F9"/>
						<stop  offset="0.9964" style="stop-color:#6165D7"/>
					</linearGradient>
					<path style="fill:url(#SVGID_1_);" d="M1054.471,2956.635c0,42.911-26.443,77.695-59.064,77.695
						c-32.618,0-59.062-34.784-59.062-77.695c0-42.909,26.443-77.695,59.062-77.695
						C1028.028,2878.94,1054.471,2913.726,1054.471,2956.635z"/>
					
						<linearGradient id="SVGID_00000116937538190491798580000015814405137336532398_" gradientUnits="userSpaceOnUse" x1="952.7974" y1="2965.406" x2="1070.9227" y2="2965.406">
						<stop  offset="0" style="stop-color:#AA80F9"/>
						<stop  offset="0.9964" style="stop-color:#6165D7"/>
					</linearGradient>
					<path style="fill:url(#SVGID_00000116937538190491798580000015814405137336532398_);" d="M1070.923,2965.406
						c0,42.911-26.442,77.694-59.062,77.694s-59.063-34.784-59.063-77.694c0-42.909,26.443-77.695,59.063-77.695
						S1070.923,2922.497,1070.923,2965.406z"/>
					
						<linearGradient id="SVGID_00000018210364750041872770000007110550579346641027_" gradientUnits="userSpaceOnUse" x1="987.1056" y1="2966.9712" x2="1036.6036" y2="2966.9712">
						<stop  offset="0" style="stop-color:#40447E"/>
						<stop  offset="0.9964" style="stop-color:#3C3B6B"/>
					</linearGradient>
					<path style="fill:url(#SVGID_00000018210364750041872770000007110550579346641027_);" d="M1036.604,2966.97
						c0,17.98-11.081,32.557-24.749,32.557c-13.667,0-24.749-14.576-24.749-32.557c0-17.979,11.082-32.555,24.749-32.555
						C1025.523,2934.415,1036.604,2948.991,1036.604,2966.97z"/>
				</g>
				<path style="fill:#DADFE5;" d="M995.407,2870.572v85.313c0,12.527,10.154,22.681,22.681,22.681l0,0
					c7.239,0,14.047-3.457,18.315-9.304l76.731-105.067L995.407,2870.572z"/>
			</g>
			<g>
				<g>
					
						<linearGradient id="SVGID_00000172421811799082829450000001673322374876403094_" gradientUnits="userSpaceOnUse" x1="1563.9448" y1="2834.8542" x2="1596.6213" y2="2862.3323">
						<stop  offset="0" style="stop-color:#AA80F9"/>
						<stop  offset="0.9964" style="stop-color:#6165D7"/>
					</linearGradient>
					<path style="fill:url(#SVGID_00000172421811799082829450000001673322374876403094_);" d="M1686.809,2888.505
						c0,42.91-26.443,77.696-59.063,77.696c-32.618,0-59.062-34.785-59.062-77.696c0-42.907,26.443-77.695,59.062-77.695
						C1660.366,2810.81,1686.809,2845.597,1686.809,2888.505z"/>
					
						<linearGradient id="SVGID_00000023995195216745345590000011614917343516395160_" gradientUnits="userSpaceOnUse" x1="1585.1371" y1="2897.2778" x2="1703.2625" y2="2897.2778">
						<stop  offset="0" style="stop-color:#AA80F9"/>
						<stop  offset="0.9964" style="stop-color:#6165D7"/>
					</linearGradient>
					<path style="fill:url(#SVGID_00000023995195216745345590000011614917343516395160_);" d="M1703.262,2897.277
						c0,42.909-26.444,77.696-59.062,77.696c-32.62,0-59.063-34.787-59.063-77.696s26.443-77.694,59.063-77.694
						C1676.819,2819.583,1703.262,2854.368,1703.262,2897.277z"/>
					
						<linearGradient id="SVGID_00000114782383832152756890000004092268957526071976_" gradientUnits="userSpaceOnUse" x1="1619.4453" y1="2898.8423" x2="1668.9415" y2="2898.8423">
						<stop  offset="0" style="stop-color:#40447E"/>
						<stop  offset="0.9964" style="stop-color:#3C3B6B"/>
					</linearGradient>
					<path style="fill:url(#SVGID_00000114782383832152756890000004092268957526071976_);" d="M1668.942,2898.841
						c0,17.981-11.078,32.557-24.749,32.557c-13.667,0-24.747-14.576-24.747-32.557c0-17.98,11.081-32.555,24.747-32.555
						C1657.863,2866.287,1668.942,2880.861,1668.942,2898.841z"/>
				</g>
				<path style="fill:#DADFE5;" d="M1627.746,2802.442v85.316c0,12.525,10.154,22.68,22.681,22.68l0,0
					c7.241,0,14.046-3.457,18.317-9.304l76.728-105.067L1627.746,2802.442z"/>
			</g>
			<path style="fill:#DADFE5;" d="M986.587,2883.83c-7.774,0-14.475-5.846-15.367-13.757c-0.961-8.5,5.158-16.161,13.658-17.122
				l748.843-84.384c40.755-7.011,74.742-37.988,85.708-78.788l313.685-1167.876c16.706-62.188,71.089-106.936,135.319-111.36
				l227.78-13.583c8.561-0.59,15.874,5.997,16.381,14.535c0.514,8.538-5.997,15.874-14.535,16.381l-227.637,13.575
				c-50.904,3.509-94.118,39.069-107.39,88.484l-313.685,1167.876c-14.089,52.439-57.771,92.242-111.278,101.416l-749.727,84.506
				C987.752,2883.8,987.169,2883.83,986.587,2883.83z"/>
			<path style="fill:#DADFE5;" d="M1507.573,2424.094c-6.738,0-12.94-4.439-14.884-11.238l-176.339-617.04
				c-2.352-8.229,2.413-16.797,10.633-19.149c8.213-2.344,16.797,2.42,19.149,10.633l176.339,617.04
				c2.352,8.229-2.413,16.797-10.633,19.149C1510.417,2423.897,1508.98,2424.094,1507.573,2424.094z"/>
			<path style="fill:#DADFE5;" d="M1687.973,2398.29c-7.366,0-13.9-5.271-15.231-12.773l-108.767-611.224
				c-1.497-8.425,4.114-16.464,12.532-17.962c8.5-1.535,16.472,4.114,17.962,12.531l108.766,611.224
				c1.498,8.425-4.114,16.464-12.531,17.961C1689.781,2398.215,1688.873,2398.29,1687.973,2398.29z"/>
			<path style="fill:#DADFE5;" d="M1800.06,2378.257c-0.212,0-0.431-0.008-0.651-0.015c-8.546-0.355-15.186-7.57-14.83-16.116
				l25.101-604.758c0.348-8.546,7.192-15.33,16.116-14.83c8.546,0.355,15.186,7.57,14.831,16.116l-25.1,604.758
				C1815.185,2371.738,1808.318,2378.257,1800.06,2378.257z"/>
			<path style="fill:#DADFE5;" d="M1261.513,2446.669c-6.474,0-12.509-4.091-14.687-10.573l-207.044-617.312
				c-2.715-8.107,1.649-16.888,9.763-19.61c8.107-2.7,16.887,1.649,19.61,9.763L1276.2,2426.25
				c2.715,8.107-1.649,16.887-9.763,19.61C1264.803,2446.404,1263.147,2446.669,1261.513,2446.669z"/>
			
				<linearGradient id="SVGID_00000177473565978030073950000006633119520717807243_" gradientUnits="userSpaceOnUse" x1="2488.438" y1="1429.7271" x2="3060.0125" y2="1429.7271">
				<stop  offset="0" style="stop-color:#40447E"/>
				<stop  offset="0.9964" style="stop-color:#3C3B6B"/>
			</linearGradient>
			<path style="fill:url(#SVGID_00000177473565978030073950000006633119520717807243_);" d="M3029.073,1481.655
				c-0.854,0-1.709-0.03-2.579-0.106l-509.619-41.897c-17.047-1.399-29.737-16.358-28.33-33.412
				c1.399-17.054,16.373-29.759,33.412-28.33l509.619,41.897c17.047,1.399,29.737,16.358,28.33,33.412
				C3058.575,1469.403,3045.03,1481.655,3029.073,1481.655z"/>
			<g>
				<g>
					
						<linearGradient id="SVGID_00000044880209995668066420000010754995969800727701_" gradientUnits="userSpaceOnUse" x1="1486.3899" y1="3114.8818" x2="1519.0663" y2="3142.3596">
						<stop  offset="0" style="stop-color:#AA80F9"/>
						<stop  offset="0.9964" style="stop-color:#6165D7"/>
					</linearGradient>
					<path style="fill:url(#SVGID_00000044880209995668066420000010754995969800727701_);" d="M1609.254,3168.533
						c0,42.909-26.444,77.695-59.062,77.695c-32.622,0-59.063-34.786-59.063-77.695s26.442-77.695,59.063-77.695
						C1582.811,3090.838,1609.254,3125.624,1609.254,3168.533z"/>
					
						<linearGradient id="SVGID_00000101101837824106685010000006657282500763109544_" gradientUnits="userSpaceOnUse" x1="1507.5804" y1="3177.3047" x2="1625.7058" y2="3177.3047">
						<stop  offset="0" style="stop-color:#AA80F9"/>
						<stop  offset="0.9964" style="stop-color:#6165D7"/>
					</linearGradient>
					<path style="fill:url(#SVGID_00000101101837824106685010000006657282500763109544_);" d="M1625.706,3177.304
						c0,42.909-26.442,77.696-59.062,77.696c-32.618,0-59.063-34.787-59.063-77.696s26.445-77.695,59.063-77.695
						C1599.264,3099.61,1625.706,3134.395,1625.706,3177.304z"/>
					
						<linearGradient id="SVGID_00000025419479986456480540000010702177518414785416_" gradientUnits="userSpaceOnUse" x1="1541.8887" y1="3178.8689" x2="1591.3867" y2="3178.8689">
						<stop  offset="0" style="stop-color:#40447E"/>
						<stop  offset="0.9964" style="stop-color:#3C3B6B"/>
					</linearGradient>
					<path style="fill:url(#SVGID_00000025419479986456480540000010702177518414785416_);" d="M1591.387,3178.868
						c0,17.98-11.079,32.556-24.749,32.556c-13.667,0-24.749-14.576-24.749-32.556c0-17.979,11.082-32.555,24.749-32.555
						C1580.308,3146.313,1591.387,3160.889,1591.387,3178.868z"/>
				</g>
				<path style="fill:#C1CAD4;" d="M1550.192,3082.47v85.313c0,12.527,10.154,22.681,22.68,22.681l0,0
					c7.241,0,14.047-3.457,18.316-9.306l76.729-105.065L1550.192,3082.47z"/>
			</g>
			<g>
				<g>
					
						<linearGradient id="SVGID_00000072256911707071339590000011758837883358278024_" gradientUnits="userSpaceOnUse" x1="2033.8599" y1="3060.0745" x2="2066.5361" y2="3087.5522">
						<stop  offset="0" style="stop-color:#AA80F9"/>
						<stop  offset="0.9964" style="stop-color:#6165D7"/>
					</linearGradient>
					<path style="fill:url(#SVGID_00000072256911707071339590000011758837883358278024_);" d="M2156.723,3113.726
						c0,42.909-26.443,77.694-59.062,77.694c-32.62,0-59.063-34.785-59.063-77.694c0-42.911,26.443-77.694,59.063-77.694
						C2130.28,3036.031,2156.723,3070.815,2156.723,3113.726z"/>
					
						<linearGradient id="SVGID_00000073696356897206742020000007467598785284587911_" gradientUnits="userSpaceOnUse" x1="2055.0515" y1="3122.4968" x2="2173.1772" y2="3122.4968">
						<stop  offset="0" style="stop-color:#AA80F9"/>
						<stop  offset="0.9964" style="stop-color:#6165D7"/>
					</linearGradient>
					<path style="fill:url(#SVGID_00000073696356897206742020000007467598785284587911_);" d="M2173.177,3122.497
						c0,42.911-26.444,77.695-59.062,77.695c-32.618,0-59.063-34.784-59.063-77.695c0-42.909,26.445-77.694,59.063-77.694
						C2146.734,3044.802,2173.177,3079.588,2173.177,3122.497z"/>
					
						<linearGradient id="SVGID_00000151539899940235815120000018057972543387033021_" gradientUnits="userSpaceOnUse" x1="2089.3599" y1="3124.0605" x2="2138.856" y2="3124.0605">
						<stop  offset="0" style="stop-color:#40447E"/>
						<stop  offset="0.9964" style="stop-color:#3C3B6B"/>
					</linearGradient>
					<path style="fill:url(#SVGID_00000151539899940235815120000018057972543387033021_);" d="M2138.856,3124.061
						c0,17.979-11.079,32.555-24.747,32.555c-13.668,0-24.749-14.576-24.749-32.555c0-17.981,11.081-32.557,24.749-32.557
						C2127.777,3091.505,2138.856,3106.081,2138.856,3124.061z"/>
				</g>
				<path style="fill:#C1CAD4;" d="M2097.662,3027.663v85.313c0,12.527,10.154,22.683,22.68,22.683l0,0
					c7.242,0,14.046-3.459,18.318-9.305l76.728-105.067L2097.662,3027.663z"/>
			</g>
			<path style="fill:#DADFE5;" d="M753.611,1843.499c-8.047,0-14.845-6.224-15.435-14.377c-0.613-8.531,5.808-15.95,14.339-16.562
				l1333.688-96.001c1.248-0.061,2.488-0.031,3.713,0.181l552.129,94.042c8.432,1.437,14.104,9.438,12.667,17.871
				c-1.437,8.425-9.332,14.104-17.871,12.667l-550.284-93.732l-1331.82,95.872C754.359,1843.484,753.981,1843.499,753.611,1843.499z
				"/>
			<path style="fill:#C1CAD4;" d="M1206.79,1981.087c-1.52,0-3.04-0.227-4.5-0.666l-453.164-137.588
				c-8.183-2.488-12.804-11.14-10.323-19.323c2.496-8.183,11.185-12.781,19.323-10.323l450.222,136.696l1429.59-139.245
				c8.652-0.93,16.094,5.4,16.918,13.908c0.832,8.516-5.4,16.093-13.908,16.918l-1432.653,139.547
				C1207.788,1981.064,1207.289,1981.087,1206.79,1981.087z"/>
			<path style="fill:#DADFE5;" d="M2466.938,2467.882c-0.786,0-1.573-0.061-2.375-0.182l-543.304-83.356l-826.579,79.56
				c-8.508,0.802-16.086-5.43-16.902-13.938c-0.817-8.515,5.422-16.078,13.938-16.903l828.5-79.741
				c1.263-0.121,2.571-0.091,3.834,0.113l545.217,83.651c8.455,1.293,14.256,9.204,12.955,17.659
				C2481.05,2462.399,2474.448,2467.882,2466.938,2467.882z"/>
			<g>
				<g>
					
						<linearGradient id="SVGID_00000077304413321557499270000009612717318675968447_" gradientUnits="userSpaceOnUse" x1="1268.2134" y1="2392.4558" x2="2293.7786" y2="2392.4558">
						<stop  offset="0" style="stop-color:#FCB148"/>
						<stop  offset="0.0521" style="stop-color:#FDBA46"/>
						<stop  offset="0.1424" style="stop-color:#FFC244"/>
						<stop  offset="0.3183" style="stop-color:#FFC444"/>
						<stop  offset="0.4849" style="stop-color:#FDB946"/>
						<stop  offset="0.7754" style="stop-color:#F99C4D"/>
						<stop  offset="0.8658" style="stop-color:#F8924F"/>
						<stop  offset="1" style="stop-color:#F8924F"/>
					</linearGradient>
					<path style="fill:url(#SVGID_00000077304413321557499270000009612717318675968447_);" d="M1344.422,2314.274v98.647
						c0,31.876,199.559,57.717,445.728,57.717c246.168,0,445.727-25.84,445.727-57.717v-98.647H1344.422z"/>
					
						<linearGradient id="SVGID_00000032627865983969199540000010555148940620755609_" gradientUnits="userSpaceOnUse" x1="1785.7144" y1="2277.1448" x2="1839.717" y2="2729.2258">
						<stop  offset="0" style="stop-color:#FFDB44"/>
						<stop  offset="1" style="stop-color:#FEEF06"/>
					</linearGradient>
					<path style="fill:url(#SVGID_00000032627865983969199540000010555148940620755609_);" d="M2235.877,2314.272
						c0,31.876-199.559,57.717-445.727,57.717c-246.169,0-445.728-25.841-445.728-57.717c0-31.875,199.559-57.716,445.728-57.716
						C2036.318,2256.556,2235.877,2282.397,2235.877,2314.272z"/>
					
						<linearGradient id="SVGID_00000083789115792833208860000003431292119385567922_" gradientUnits="userSpaceOnUse" x1="1783.36" y1="2256.9272" x2="1799.9514" y2="2395.8215">
						<stop  offset="0" style="stop-color:#FFDB44"/>
						<stop  offset="1" style="stop-color:#FEEF06"/>
					</linearGradient>
					<path style="fill:url(#SVGID_00000083789115792833208860000003431292119385567922_);" d="M1790.148,2375.97
						c-218.013,0-445.985-20.778-445.985-60.854c0-2.2,0.786-6.069,2.993-6.069c2.206,0,1.257,3.026,1.257,5.227
						c0,25.415,181.415,53.732,441.735,53.732c260.321,0,441.736-28.317,441.736-53.732c0-2.201,0.376-4.264,2.583-4.264
						c2.206,0,1.674,2.937,1.674,5.138C2236.14,2355.224,2008.162,2375.97,1790.148,2375.97z"/>
					<g>
						<path style="fill:#FCB048;" d="M1748.03,2317.49c4.374-3.021,9.027-5.999,14.008-8.941c4.934-2.937,11.363-5.593,19.148-7.964
							c7.832-2.373,17.625-4.301,29.383-5.798c11.757-1.497,26.458-2.285,44.011-2.37c17.226-0.084,33.383,0.461,48.513,1.638
							c15.084,1.172,28.398,2.933,39.894,5.27c11.45,2.339,20.8,5.232,28.007,8.67c7.16,3.447,11.427,7.392,12.803,11.84
							l50.188,0.507c3.642,0.023,6.864,0.317,9.622,0.889c2.804,0.571,4.161,1.291,4.165,2.166l0.02,4.124l-64.521-0.62
							c-2.263,5.05-8.029,9.669-17.299,13.859c-9.223,4.194-21.016,7.821-35.38,10.891l-23.498-3.26
							c-2.103-0.32-3.833-0.729-5.189-1.226c-1.356-0.492-2.012-1.027-2.015-1.612c-0.004-0.793,1.812-1.697,5.448-2.712
							c3.637-1.019,7.738-2.28,12.306-3.781c4.568-1.497,9.041-3.268,13.466-5.314c4.378-2.039,7.308-4.479,8.834-7.319
							l-152.292-1.506c-4,2.938-8.514,5.822-13.449,8.658c-4.981,2.836-11.552,5.391-19.756,7.658
							c-8.206,2.267-18.42,4.107-30.645,5.525c-12.271,1.412-27.627,2.164-46.206,2.255c-13.959,0.068-27.545-0.46-40.857-1.58
							c-13.31-1.125-25.13-2.806-35.458-5.044c-10.328-2.242-18.792-5.012-25.437-8.31c-6.599-3.303-10.307-7.094-11.075-11.382
							l-41.317-0.423c-3.642-0.023-6.864-0.308-9.762-0.857c-2.849-0.551-4.301-1.281-4.306-2.196l-0.02-4.124l56.49,0.537
							c2.5-4.344,7.617-8.132,15.444-11.353c7.826-3.226,17.383-6.095,28.668-8.606l18.92,2.592
							c5.747,0.806,8.599,1.748,8.604,2.831c0.002,0.584-1.161,1.307-3.537,2.173c-2.424,0.866-5.219,1.902-8.482,3.102
							c-3.215,1.206-6.382,2.615-9.409,4.235c-3.073,1.617-5.352,3.449-6.882,5.5L1748.03,2317.49z M1608.658,2323.109
							c1.135,2.704,3.666,5.032,7.505,6.99c3.837,1.965,8.607,3.573,14.356,4.836c5.748,1.264,12.196,2.188,19.341,2.778
							c7.193,0.59,14.71,0.869,22.552,0.83c9.15-0.044,17.131-0.439,23.943-1.18c6.765-0.745,12.735-1.75,17.911-3.026
							c5.13-1.275,9.65-2.751,13.471-4.438c3.819-1.687,7.219-3.513,10.289-5.486L1608.658,2323.109z M1940.192,2319.422
							c-1.133-2.74-3.9-5.142-8.205-7.206c-4.305-2.059-9.822-3.795-16.505-5.197c-6.683-1.406-14.484-2.451-23.405-3.135
							c-8.873-0.683-18.679-1.001-29.415-0.948c-9.524,0.046-17.785,0.473-24.644,1.275c-6.859,0.807-12.829,1.883-17.911,3.245
							c-5.035,1.357-9.369,2.939-12.862,4.746c-3.539,1.807-6.844,3.74-9.869,5.798L1940.192,2319.422z"/>
					</g>
					
						<linearGradient id="SVGID_00000024001170241151353380000017945226902011722151_" gradientUnits="userSpaceOnUse" x1="-129.7167" y1="1746.5085" x2="-113.1825" y2="1884.9243" gradientTransform="matrix(-1 0 0 -1 1669.249 4127.8389)">
						<stop  offset="0.0036" style="stop-color:#F36F56"/>
						<stop  offset="0.3059" style="stop-color:#F99C4C"/>
						<stop  offset="0.545" style="stop-color:#FDB946"/>
						<stop  offset="0.6817" style="stop-color:#FFC444"/>
						<stop  offset="0.8038" style="stop-color:#FFC244"/>
						<stop  offset="0.8667" style="stop-color:#FEBA46"/>
						<stop  offset="0.916" style="stop-color:#FCAD49"/>
						<stop  offset="0.958" style="stop-color:#F99A4D"/>
						<stop  offset="0.9955" style="stop-color:#F58152"/>
						<stop  offset="1" style="stop-color:#F57E53"/>
					</linearGradient>
					<path style="fill:url(#SVGID_00000024001170241151353380000017945226902011722151_);" d="M1790.21,2262.804
						c-198.742,0-405.676,17.449-438.776,51.23c1.296,1.191,2.5,2.463,3.618,3.8c27.898-23.453,198.769-47.068,435.158-47.068
						c242.458,0,416.067,24.845,437.097,48.876c1.033-1.318,2.138-2.58,3.333-3.769
						C2203.302,2280.899,1992.482,2262.804,1790.21,2262.804z"/>
				</g>
				<g>
					
						<linearGradient id="SVGID_00000163046093504307322150000010155644130815590563_" gradientUnits="userSpaceOnUse" x1="1144.3043" y1="2288.8376" x2="2169.8687" y2="2288.8376">
						<stop  offset="0" style="stop-color:#FCB148"/>
						<stop  offset="0.0521" style="stop-color:#FDBA46"/>
						<stop  offset="0.1424" style="stop-color:#FFC244"/>
						<stop  offset="0.3183" style="stop-color:#FFC444"/>
						<stop  offset="0.4849" style="stop-color:#FDB946"/>
						<stop  offset="0.7754" style="stop-color:#F99C4D"/>
						<stop  offset="0.8658" style="stop-color:#F8924F"/>
						<stop  offset="1" style="stop-color:#F8924F"/>
					</linearGradient>
					<path style="fill:url(#SVGID_00000163046093504307322150000010155644130815590563_);" d="M1220.513,2210.655v98.647
						c0,31.878,199.558,57.717,445.727,57.717c246.168,0,445.727-25.84,445.727-57.717v-98.647H1220.513z"/>
					
						<linearGradient id="SVGID_00000080165039593547924360000016990950149018575783_" gradientUnits="userSpaceOnUse" x1="1661.8049" y1="2173.5278" x2="1715.8076" y2="2625.6096">
						<stop  offset="0" style="stop-color:#FFDB44"/>
						<stop  offset="1" style="stop-color:#FEEF06"/>
					</linearGradient>
					
						<ellipse style="fill:url(#SVGID_00000080165039593547924360000016990950149018575783_);" cx="1666.24" cy="2210.656" rx="445.727" ry="57.717"/>
					
						<linearGradient id="SVGID_00000140000654649160453850000007948874572747905704_" gradientUnits="userSpaceOnUse" x1="1659.45" y1="2153.3105" x2="1676.0413" y2="2292.2036">
						<stop  offset="0" style="stop-color:#FFDB44"/>
						<stop  offset="1" style="stop-color:#FEEF06"/>
					</linearGradient>
					<path style="fill:url(#SVGID_00000140000654649160453850000007948874572747905704_);" d="M1666.239,2272.352
						c-218.013,0-445.986-20.779-445.986-60.854c0-2.202,0.787-6.069,2.992-6.069c2.206,0,1.257,3.025,1.257,5.226
						c0,25.417,181.416,53.733,441.736,53.733s441.736-28.316,441.736-53.733c0-2.201,0.376-4.262,2.582-4.262
						c2.206,0,1.674,2.937,1.674,5.138C2112.23,2251.605,1884.252,2272.352,1666.239,2272.352z"/>
					<g>
						<path style="fill:#FCB048;" d="M1624.12,2213.872c4.374-3.021,9.028-5.998,14.008-8.941
							c4.934-2.938,11.364-5.593,19.149-7.965c7.832-2.371,17.626-4.302,29.383-5.797c11.757-1.497,26.459-2.285,44.012-2.371
							c17.226-0.084,33.382,0.462,48.513,1.638c15.085,1.172,28.399,2.932,39.894,5.271c11.45,2.338,20.801,5.231,28.007,8.669
							c7.16,3.449,11.427,7.393,12.802,11.841l50.188,0.506c3.642,0.022,6.865,0.317,9.622,0.888
							c2.804,0.572,4.161,1.292,4.165,2.167l0.021,4.123l-64.521-0.619c-2.263,5.05-8.029,9.669-17.299,13.859
							c-9.223,4.194-21.016,7.821-35.379,10.891l-23.499-3.261c-2.102-0.321-3.831-0.729-5.188-1.225
							c-1.356-0.492-2.012-1.028-2.015-1.612c-0.004-0.794,1.813-1.698,5.449-2.712c3.636-1.019,7.739-2.28,12.306-3.781
							c4.568-1.497,9.042-3.268,13.466-5.313c4.378-2.04,7.308-4.48,8.834-7.319l-152.292-1.507
							c-4.001,2.938-8.514,5.823-13.45,8.659c-4.981,2.836-11.551,5.39-19.756,7.657c-8.206,2.267-18.42,4.107-30.644,5.524
							c-12.271,1.412-27.626,2.164-46.207,2.255c-13.958,0.069-27.547-0.46-40.856-1.58c-13.311-1.124-25.13-2.806-35.458-5.043
							c-10.328-2.242-18.792-5.012-25.437-8.311c-6.599-3.302-10.305-7.094-11.073-11.38l-41.318-0.423
							c-3.641-0.023-6.864-0.307-9.761-0.858c-2.85-0.55-4.301-1.281-4.305-2.195l-0.021-4.124l56.491,0.537
							c2.5-4.344,7.616-8.132,15.443-11.353c7.828-3.227,17.384-6.096,28.669-8.606l18.919,2.592
							c5.746,0.805,8.599,1.747,8.605,2.83c0.003,0.585-1.161,1.307-3.538,2.173c-2.422,0.865-5.219,1.901-8.481,3.103
							c-3.216,1.205-6.383,2.613-9.41,4.235c-3.073,1.617-5.351,3.448-6.882,5.5L1624.12,2213.872z M1484.748,2219.492
							c1.135,2.705,3.666,5.031,7.504,6.99c3.839,1.964,8.607,3.573,14.355,4.836c5.749,1.263,12.196,2.187,19.342,2.778
							c7.192,0.59,14.709,0.868,22.552,0.829c9.151-0.045,17.131-0.44,23.943-1.18c6.766-0.744,12.737-1.75,17.913-3.026
							c5.129-1.276,9.649-2.752,13.47-4.439c3.819-1.687,7.219-3.513,10.29-5.486L1484.748,2219.492z M1816.283,2215.804
							c-1.134-2.739-3.901-5.142-8.206-7.205c-4.305-2.059-9.822-3.796-16.505-5.198c-6.682-1.406-14.484-2.451-23.403-3.134
							c-8.874-0.684-18.679-1.002-29.417-0.95c-9.523,0.047-17.784,0.473-24.643,1.275c-6.859,0.806-12.829,1.883-17.91,3.245
							c-5.036,1.356-9.37,2.939-12.862,4.746c-3.54,1.807-6.844,3.74-9.868,5.798L1816.283,2215.804z"/>
					</g>
					
						<linearGradient id="SVGID_00000011743314084910505490000000519408204881271949_" gradientUnits="userSpaceOnUse" x1="-5.8067" y1="1850.1268" x2="10.7274" y2="1988.542" gradientTransform="matrix(-1 0 0 -1 1669.249 4127.8389)">
						<stop  offset="0.0036" style="stop-color:#F36F56"/>
						<stop  offset="0.3059" style="stop-color:#F99C4C"/>
						<stop  offset="0.545" style="stop-color:#FDB946"/>
						<stop  offset="0.6817" style="stop-color:#FFC444"/>
						<stop  offset="0.8038" style="stop-color:#FFC244"/>
						<stop  offset="0.8667" style="stop-color:#FEBA46"/>
						<stop  offset="0.916" style="stop-color:#FCAD49"/>
						<stop  offset="0.958" style="stop-color:#F99A4D"/>
						<stop  offset="0.9955" style="stop-color:#F58152"/>
						<stop  offset="1" style="stop-color:#F57E53"/>
					</linearGradient>
					<path style="fill:url(#SVGID_00000011743314084910505490000000519408204881271949_);" d="M1666.3,2159.186
						c-198.742,0-405.677,17.45-438.777,51.23c1.296,1.191,2.499,2.463,3.618,3.801c27.9-23.454,198.77-47.068,435.159-47.068
						c242.458,0,416.067,24.844,437.097,48.875c1.033-1.318,2.138-2.58,3.334-3.768
						C2079.392,2177.282,1868.573,2159.186,1666.3,2159.186z"/>
				</g>
				<g>
					
						<linearGradient id="SVGID_00000010269399612177897120000016963612372507054753_" gradientUnits="userSpaceOnUse" x1="1251.2212" y1="2185.5234" x2="2276.7861" y2="2185.5234">
						<stop  offset="0" style="stop-color:#FCB148"/>
						<stop  offset="0.0521" style="stop-color:#FDBA46"/>
						<stop  offset="0.1424" style="stop-color:#FFC244"/>
						<stop  offset="0.3183" style="stop-color:#FFC444"/>
						<stop  offset="0.4849" style="stop-color:#FDB946"/>
						<stop  offset="0.7754" style="stop-color:#F99C4D"/>
						<stop  offset="0.8658" style="stop-color:#F8924F"/>
						<stop  offset="1" style="stop-color:#F8924F"/>
					</linearGradient>
					<path style="fill:url(#SVGID_00000010269399612177897120000016963612372507054753_);" d="M1327.43,2107.341v98.648
						c0,31.877,199.559,57.717,445.728,57.717c246.168,0,445.727-25.84,445.727-57.717v-98.648H1327.43z"/>
					
						<linearGradient id="SVGID_00000158727735805796683610000004505962705009594543_" gradientUnits="userSpaceOnUse" x1="1768.722" y1="2070.2134" x2="1822.7249" y2="2522.2954">
						<stop  offset="0" style="stop-color:#FFDB44"/>
						<stop  offset="1" style="stop-color:#FEEF06"/>
					</linearGradient>
					
						<ellipse style="fill:url(#SVGID_00000158727735805796683610000004505962705009594543_);" cx="1773.157" cy="2107.341" rx="445.727" ry="57.717"/>
					
						<linearGradient id="SVGID_00000083768200630193302660000004822997254009782918_" gradientUnits="userSpaceOnUse" x1="1766.3673" y1="2049.9961" x2="1782.9586" y2="2188.8896">
						<stop  offset="0" style="stop-color:#FFDB44"/>
						<stop  offset="1" style="stop-color:#FEEF06"/>
					</linearGradient>
					<path style="fill:url(#SVGID_00000083768200630193302660000004822997254009782918_);" d="M1773.156,2169.038
						c-218.013,0-445.986-20.778-445.986-60.854c0-2.201,0.787-6.069,2.993-6.069s1.257,3.025,1.257,5.226
						c0,25.417,181.415,53.733,441.736,53.733c260.321,0,441.736-28.316,441.736-53.733c0-2.201,0.377-4.263,2.583-4.263
						s1.673,2.937,1.673,5.138C2219.147,2148.292,1991.17,2169.038,1773.156,2169.038z"/>
					<g>
						<path style="fill:#FCB048;" d="M1731.038,2110.559c4.373-3.021,9.027-5.999,14.008-8.941
							c4.934-2.938,11.363-5.593,19.149-7.965c7.831-2.371,17.625-4.3,29.383-5.797c11.757-1.497,26.458-2.286,44.011-2.371
							c17.226-0.085,33.381,0.463,48.513,1.639c15.084,1.171,28.399,2.933,39.894,5.271c11.45,2.337,20.8,5.232,28.007,8.668
							c7.16,3.448,11.427,7.393,12.803,11.841l50.187,0.507c3.642,0.023,6.864,0.318,9.622,0.888
							c2.804,0.571,4.161,1.292,4.165,2.167l0.02,4.123l-64.52-0.619c-2.263,5.05-8.029,9.669-17.299,13.858
							c-9.223,4.194-21.016,7.821-35.379,10.892l-23.499-3.262c-2.101-0.319-3.831-0.728-5.187-1.225
							c-1.356-0.492-2.012-1.028-2.016-1.612c-0.003-0.793,1.812-1.697,5.449-2.712c3.637-1.019,7.738-2.28,12.306-3.781
							c4.568-1.497,9.041-3.268,13.465-5.313c4.379-2.041,7.308-4.48,8.834-7.32l-152.291-1.507c-4,2.938-8.514,5.823-13.449,8.659
							c-4.981,2.836-11.552,5.39-19.756,7.657c-8.206,2.267-18.421,4.107-30.645,5.524c-12.271,1.413-27.627,2.164-46.207,2.255
							c-13.959,0.069-27.547-0.46-40.857-1.579c-13.311-1.124-25.13-2.806-35.458-5.043c-10.328-2.242-18.792-5.012-25.437-8.311
							c-6.599-3.302-10.306-7.093-11.075-11.38l-41.317-0.423c-3.641-0.022-6.864-0.307-9.761-0.857
							c-2.85-0.55-4.302-1.28-4.306-2.195l-0.021-4.124l56.491,0.537c2.499-4.344,7.616-8.132,15.444-11.353
							c7.826-3.227,17.383-6.095,28.668-8.606l18.92,2.592c5.747,0.805,8.598,1.747,8.604,2.83c0.002,0.585-1.161,1.308-3.537,2.173
							c-2.424,0.867-5.22,1.901-8.482,3.103c-3.215,1.205-6.383,2.614-9.409,4.235c-3.073,1.617-5.352,3.449-6.882,5.5
							L1731.038,2110.559z M1591.666,2116.177c1.135,2.705,3.666,5.031,7.504,6.99c3.837,1.964,8.608,3.573,14.355,4.836
							c5.748,1.263,12.196,2.187,19.34,2.778c7.194,0.59,14.711,0.868,22.554,0.83c9.149-0.045,17.131-0.44,23.943-1.179
							c6.766-0.745,12.736-1.75,17.912-3.026c5.129-1.276,9.65-2.752,13.47-4.439c3.82-1.687,7.219-3.513,10.29-5.486
							L1591.666,2116.177z M1923.2,2112.49c-1.134-2.74-3.9-5.141-8.205-7.205c-4.306-2.059-9.823-3.797-16.505-5.197
							c-6.683-1.406-14.484-2.452-23.405-3.135c-8.874-0.685-18.679-1.002-29.415-0.95c-9.523,0.047-17.785,0.474-24.643,1.275
							c-6.859,0.806-12.829,1.883-17.911,3.245c-5.036,1.357-9.37,2.939-12.862,4.746c-3.54,1.807-6.845,3.74-9.869,5.798
							L1923.2,2112.49z"/>
					</g>
					
						<linearGradient id="SVGID_00000158738270061558730880000009836284480744531608_" gradientUnits="userSpaceOnUse" x1="-112.7242" y1="1953.4406" x2="-96.19" y2="2091.856" gradientTransform="matrix(-1 0 0 -1 1669.249 4127.8389)">
						<stop  offset="0.0036" style="stop-color:#F36F56"/>
						<stop  offset="0.3059" style="stop-color:#F99C4C"/>
						<stop  offset="0.545" style="stop-color:#FDB946"/>
						<stop  offset="0.6817" style="stop-color:#FFC444"/>
						<stop  offset="0.8038" style="stop-color:#FFC244"/>
						<stop  offset="0.8667" style="stop-color:#FEBA46"/>
						<stop  offset="0.916" style="stop-color:#FCAD49"/>
						<stop  offset="0.958" style="stop-color:#F99A4D"/>
						<stop  offset="0.9955" style="stop-color:#F58152"/>
						<stop  offset="1" style="stop-color:#F57E53"/>
					</linearGradient>
					<path style="fill:url(#SVGID_00000158738270061558730880000009836284480744531608_);" d="M1773.218,2055.872
						c-198.742,0-405.677,17.45-438.777,51.23c1.296,1.192,2.5,2.464,3.618,3.801c27.899-23.455,198.769-47.067,435.159-47.067
						c242.457,0,416.067,24.844,437.096,48.875c1.034-1.318,2.137-2.581,3.334-3.768
						C2186.309,2073.968,1975.49,2055.872,1773.218,2055.872z"/>
				</g>
				<g>
					
						<linearGradient id="SVGID_00000111880025318351154100000004976545332957363358_" gradientUnits="userSpaceOnUse" x1="1316.1019" y1="2081.9065" x2="2341.6663" y2="2081.9065">
						<stop  offset="0" style="stop-color:#FCB148"/>
						<stop  offset="0.0521" style="stop-color:#FDBA46"/>
						<stop  offset="0.1424" style="stop-color:#FFC244"/>
						<stop  offset="0.3183" style="stop-color:#FFC444"/>
						<stop  offset="0.4849" style="stop-color:#FDB946"/>
						<stop  offset="0.7754" style="stop-color:#F99C4D"/>
						<stop  offset="0.8658" style="stop-color:#F8924F"/>
						<stop  offset="1" style="stop-color:#F8924F"/>
					</linearGradient>
					<path style="fill:url(#SVGID_00000111880025318351154100000004976545332957363358_);" d="M1392.311,2003.724v98.647
						c0,31.877,199.558,57.717,445.727,57.717c246.168,0,445.727-25.84,445.727-57.717v-98.647H1392.311z"/>
					
						<linearGradient id="SVGID_00000095318679986425582260000017452743865742575751_" gradientUnits="userSpaceOnUse" x1="1833.6025" y1="1966.5957" x2="1887.6052" y2="2418.6777">
						<stop  offset="0" style="stop-color:#FFDB44"/>
						<stop  offset="1" style="stop-color:#FEEF06"/>
					</linearGradient>
					
						<ellipse style="fill:url(#SVGID_00000095318679986425582260000017452743865742575751_);" cx="1838.038" cy="2003.724" rx="445.727" ry="57.717"/>
					
						<linearGradient id="SVGID_00000147188172948322630300000013238709351920370827_" gradientUnits="userSpaceOnUse" x1="1831.2474" y1="1946.3774" x2="1847.8389" y2="2085.2722">
						<stop  offset="0" style="stop-color:#FFDB44"/>
						<stop  offset="1" style="stop-color:#FEEF06"/>
					</linearGradient>
					<path style="fill:url(#SVGID_00000147188172948322630300000013238709351920370827_);" d="M1838.036,2065.42
						c-218.013,0-445.986-20.778-445.986-60.854c0-2.201,0.787-6.07,2.992-6.07c2.206,0,1.257,3.026,1.257,5.228
						c0,25.415,181.416,53.732,441.736,53.732s441.736-28.317,441.736-53.732c0-2.201,0.376-4.264,2.582-4.264
						c2.206,0,1.673,2.936,1.673,5.138C2284.028,2044.675,2056.049,2065.42,1838.036,2065.42z"/>
					<g>
						<path style="fill:#FCB048;" d="M1795.918,2006.94c4.373-3.021,9.027-5.998,14.007-8.941
							c4.934-2.937,11.364-5.593,19.149-7.964c7.832-2.373,17.626-4.301,29.383-5.797c11.757-1.497,26.459-2.285,44.011-2.372
							c17.227-0.084,33.382,0.462,48.514,1.638c15.085,1.172,28.399,2.932,39.894,5.271c11.45,2.339,20.801,5.232,28.007,8.669
							c7.16,3.448,11.427,7.393,12.803,11.84l50.188,0.507c3.642,0.024,6.865,0.318,9.622,0.889
							c2.804,0.571,4.161,1.292,4.165,2.166l0.021,4.124l-64.521-0.619c-2.263,5.049-8.029,9.669-17.299,13.858
							c-9.222,4.193-21.016,7.821-35.379,10.891l-23.499-3.262c-2.102-0.32-3.832-0.729-5.188-1.225
							c-1.356-0.491-2.012-1.027-2.015-1.612c-0.004-0.793,1.813-1.696,5.449-2.711c3.637-1.02,7.739-2.281,12.305-3.783
							c4.568-1.497,9.042-3.267,13.466-5.313c4.378-2.04,7.308-4.479,8.834-7.319l-152.291-1.507
							c-4.001,2.938-8.515,5.823-13.45,8.658c-4.981,2.838-11.551,5.391-19.756,7.658c-8.206,2.268-18.42,4.107-30.644,5.526
							c-12.271,1.411-27.626,2.164-46.207,2.255c-13.958,0.068-27.546-0.461-40.856-1.579c-13.311-1.125-25.13-2.806-35.458-5.043
							c-10.328-2.243-18.792-5.014-25.437-8.311c-6.599-3.304-10.305-7.093-11.073-11.381l-41.318-0.423
							c-3.641-0.024-6.864-0.307-9.761-0.857c-2.85-0.551-4.3-1.28-4.305-2.196l-0.02-4.124l56.49,0.537
							c2.499-4.344,7.616-8.131,15.443-11.352c7.828-3.226,17.384-6.094,28.669-8.606l18.92,2.592
							c5.746,0.805,8.598,1.748,8.604,2.831c0.003,0.584-1.161,1.307-3.538,2.172c-2.423,0.866-5.219,1.902-8.482,3.103
							c-3.216,1.205-6.383,2.614-9.41,4.235c-3.073,1.617-5.352,3.448-6.882,5.5L1795.918,2006.94z M1656.546,2012.56
							c1.134,2.705,3.666,5.031,7.504,6.99c3.839,1.965,8.607,3.573,14.355,4.837c5.749,1.263,12.196,2.187,19.342,2.777
							c7.192,0.591,14.709,0.87,22.552,0.831c9.15-0.045,17.131-0.44,23.943-1.18c6.766-0.746,12.737-1.751,17.913-3.028
							c5.129-1.275,9.65-2.751,13.469-4.437c3.82-1.687,7.219-3.514,10.291-5.486L1656.546,2012.56z M1988.081,2008.873
							c-1.134-2.74-3.901-5.142-8.206-7.206c-4.305-2.058-9.822-3.796-16.506-5.197c-6.682-1.406-14.484-2.451-23.404-3.134
							c-8.873-0.684-18.678-1.003-29.416-0.95c-9.524,0.047-17.784,0.473-24.643,1.274c-6.86,0.807-12.83,1.883-17.911,3.245
							c-5.036,1.358-9.37,2.938-12.862,4.746c-3.54,1.807-6.844,3.74-9.868,5.799L1988.081,2008.873z"/>
					</g>
					
						<linearGradient id="SVGID_00000150100246519869221020000009142016760908337793_" gradientUnits="userSpaceOnUse" x1="-177.6044" y1="2057.0579" x2="-161.0703" y2="2195.4729" gradientTransform="matrix(-1 0 0 -1 1669.249 4127.8389)">
						<stop  offset="0.0036" style="stop-color:#F36F56"/>
						<stop  offset="0.3059" style="stop-color:#F99C4C"/>
						<stop  offset="0.545" style="stop-color:#FDB946"/>
						<stop  offset="0.6817" style="stop-color:#FFC444"/>
						<stop  offset="0.8038" style="stop-color:#FFC244"/>
						<stop  offset="0.8667" style="stop-color:#FEBA46"/>
						<stop  offset="0.916" style="stop-color:#FCAD49"/>
						<stop  offset="0.958" style="stop-color:#F99A4D"/>
						<stop  offset="0.9955" style="stop-color:#F58152"/>
						<stop  offset="1" style="stop-color:#F57E53"/>
					</linearGradient>
					<path style="fill:url(#SVGID_00000150100246519869221020000009142016760908337793_);" d="M1838.098,1952.255
						c-198.742,0-405.677,17.45-438.777,51.23c1.296,1.191,2.5,2.462,3.618,3.801c27.9-23.454,198.77-47.068,435.159-47.068
						c242.458,0,416.067,24.845,437.097,48.876c1.033-1.318,2.138-2.58,3.334-3.768
						C2251.189,1970.35,2040.37,1952.255,1838.098,1952.255z"/>
				</g>
			</g>
			<path style="fill:#C1CAD4;" d="M1481.807,2561.546c-5.937,0-11.412-3.411-13.991-8.856l-275.025-580.459
				c-3.66-7.729-0.363-16.963,7.366-20.631c7.721-3.645,16.971-0.371,20.631,7.366l270.374,570.643l974.286-92.635
				c8.636-0.817,16.078,5.445,16.887,13.953c0.809,8.516-5.438,16.078-13.953,16.888l-985.101,93.664
				C1482.79,2561.523,1482.298,2561.546,1481.807,2561.546z"/>
			<path style="fill:#C1CAD4;" d="M1481.83,2561.546c-1.255,0-2.518-0.151-3.789-0.469l-388.617-97.574
				c-4.182-1.051-7.744-3.797-9.816-7.585l-339.573-620.473c-4.106-7.502-1.346-16.918,6.156-21.024
				c7.51-4.092,16.918-1.339,21.025,6.156l336.32,614.536l382.052,95.925c8.296,2.08,13.333,10.497,11.246,18.793
				C1495.072,2556.857,1488.757,2561.546,1481.83,2561.546z"/>
			<path style="fill:#C1CAD4;" d="M1306.822,2192.214c-1.475,0-2.942-0.212-4.356-0.627l-426.793-125.094
				c-8.206-2.405-12.91-11.011-10.505-19.217c2.397-8.206,11.049-12.917,19.217-10.504l423.995,124.27l1260.262-109.908
				c8.667-0.855,16.033,5.566,16.774,14.082c0.749,8.523-5.558,16.033-14.082,16.774l-1263.166,110.166
				C1307.722,2192.192,1307.268,2192.214,1306.822,2192.214z"/>
			<path style="fill:#C1CAD4;" d="M1411.096,2412.281c-1.406,0-2.813-0.189-4.174-0.575l-408.877-114.544
				c-8.243-2.307-13.046-10.853-10.739-19.088c2.306-8.244,10.852-13.061,19.088-10.739l406.162,113.781l1094.359-95.736
				c8.5-0.9,16.033,5.559,16.774,14.082c0.749,8.516-5.559,16.033-14.082,16.774l-1097.165,95.986
				C1411.996,2412.259,1411.542,2412.281,1411.096,2412.281z"/>
			<path style="fill:#C1CAD4;" d="M1682.967,2542.427c-6.67,0-12.834-4.349-14.838-11.072l-175.394-588.438
				c-2.443-8.198,2.223-16.827,10.421-19.27c8.168-2.45,16.82,2.216,19.27,10.421l175.394,588.438
				c2.443,8.198-2.224,16.827-10.422,19.27C1685.924,2542.216,1684.434,2542.427,1682.967,2542.427z"/>
			<path style="fill:#C1CAD4;" d="M1876.98,2523.975c-7.381,0-13.915-5.286-15.239-12.796l-105.197-596.167
				c-1.482-8.425,4.137-16.456,12.562-17.946c8.394-1.467,16.464,4.144,17.946,12.562l105.197,596.167
				c1.482,8.425-4.137,16.457-12.562,17.946C1878.78,2523.899,1877.873,2523.975,1876.98,2523.975z"/>
			<path style="fill:#C1CAD4;" d="M2095.799,2499.071c-8.16,0-14.989-6.375-15.45-14.619l-33.155-591.954
				c-0.477-8.546,6.057-15.859,14.596-16.335c8.599-0.333,15.859,6.058,16.336,14.596l33.155,591.954
				c0.476,8.546-6.057,15.859-14.596,16.335C2096.389,2499.063,2096.094,2499.071,2095.799,2499.071z"/>
			<path style="fill:#C1CAD4;" d="M2303.138,2475.861c-0.272,0-0.552-0.008-0.824-0.023c-8.546-0.446-15.103-7.736-14.656-16.275
				l31.544-601.4c0.446-8.539,7.654-15.095,16.275-14.657c8.546,0.446,15.103,7.737,14.656,16.275l-31.544,601.4
				C2318.157,2469.448,2311.321,2475.861,2303.138,2475.861z"/>
			<path style="fill:#C1CAD4;" d="M1364.29,2532.036c-5.763,0-11.299-3.229-13.968-8.772l-283.472-589.202
				c-3.714-7.706-0.469-16.963,7.237-20.669c7.699-3.698,16.971-0.461,20.676,7.238l283.472,589.201
				c3.713,7.706,0.469,16.963-7.237,20.677C1368.836,2531.545,1366.544,2532.036,1364.29,2532.036z"/>
			<path style="fill:#C1CAD4;" d="M1206.805,2492.491c-5.687,0-11.162-3.139-13.87-8.569l-300.912-602.769
				c-3.827-7.653-0.719-16.956,6.935-20.775c7.669-3.842,16.97-0.711,20.775,6.935l300.912,602.769
				c3.827,7.654,0.718,16.955-6.935,20.775C1211.486,2491.969,1209.127,2492.491,1206.805,2492.491z"/>
			<path style="fill:#C1CAD4;" d="M1547.224,3106.324c-1.951,0-3.887-0.371-5.71-1.089L980.9,2882.741
				c-7.956-3.161-11.843-12.161-8.69-20.109c3.154-7.956,12.169-11.843,20.109-8.689l556.947,221.042l676.271-82.615
				c48.137-5.876,87.561-39.893,100.448-86.646L2696.7,1559.883c16.918-61.424,70.976-105.787,134.518-110.393l196.698-14.263
				c8.44-0.492,15.95,5.793,16.57,14.331c0.612,8.531-5.801,15.95-14.332,16.57l-196.698,14.263
				c-50.496,3.653-93.452,38.902-106.898,87.719l-370.716,1345.841c-16.229,58.906-65.901,101.756-126.554,109.168l-680.188,83.091
				C1548.48,3106.287,1547.852,3106.324,1547.224,3106.324z"/>
			<g>
				
					<linearGradient id="SVGID_00000139266068652392441540000005578354124692433852_" gradientUnits="userSpaceOnUse" x1="1298.5757" y1="346.0442" x2="2022.1171" y2="1509.3083">
					<stop  offset="0" style="stop-color:#311944"/>
					<stop  offset="1" style="stop-color:#893976"/>
				</linearGradient>
				<path style="fill:url(#SVGID_00000139266068652392441540000005578354124692433852_);" d="M2436.337,549.808l-1354.259-72.934
					c-111.547-6.007-202.45,76.109-202.45,183.445v742.055c0,107.336,90.903,196.587,202.45,199.335l442.748,10.907l206.617,244.169
					c12.457,14.722,34.257,17.118,49.615,5.454l0,0l198.708-238.414l456.571,11.248c103.25,2.544,186.53-78.497,186.53-180.997
					V745.446C2622.866,642.946,2539.586,555.368,2436.337,549.808z"/>
				
					<linearGradient id="SVGID_00000000912383416435726760000012513704388024555146_" gradientUnits="userSpaceOnUse" x1="1325.5305" y1="324.4801" x2="2049.072" y2="1487.7443">
					<stop  offset="0" style="stop-color:#FF9085"/>
					<stop  offset="1" style="stop-color:#FB6FBB"/>
				</linearGradient>
				<path style="fill:url(#SVGID_00000000912383416435726760000012513704388024555146_);" d="M2463.292,528.244l-1354.26-72.934
					c-111.547-6.007-202.45,76.109-202.45,183.445v742.055c0,107.335,90.903,196.587,202.45,199.335l442.749,10.908l201.572,238.206
					c14.344,16.951,40.415,17.146,55.011,0.412l198.357-227.41l456.571,11.248c103.25,2.544,186.53-78.497,186.53-180.997V723.882
					C2649.822,621.382,2566.542,533.804,2463.292,528.244z"/>
				<path style="fill:#FFFFFF;" d="M2243.519,969.425c-7.485-140.451-102.93-258.452-221.796-273.391
					c-94.539-11.881-178.659,41.559-223.437,128.019c-44.885-90.713-129.785-152.564-226.111-149.938
					c-122.506,3.34-222.016,114.571-229.862,257.705c-5.186,94.58,29.137,181.507,85.486,240.109l345.808,281.663
					c14.938,12.166,34.416,12.714,49.326,1.402l338.719-256.987C2215.695,1144.576,2248.462,1062.171,2243.519,969.425z"/>
			</g>
		</g>
		<g>
			
				<linearGradient id="SVGID_00000052818244186977729590000000818572224202122119_" gradientUnits="userSpaceOnUse" x1="441.5712" y1="2661.8345" x2="1462.1624" y2="2661.8345">
				<stop  offset="0.0036" style="stop-color:#E38DDD"/>
				<stop  offset="1" style="stop-color:#9571F6"/>
			</linearGradient>
			<path style="fill:url(#SVGID_00000052818244186977729590000000818572224202122119_);" d="M476.244,3179.507l-15.421-13.758
				c-24.588-21.938-25.785-59.484-2.661-83.79l906.662-952.977l97.338,94.252L562.17,3175.093
				C539.219,3199.366,500.754,3201.375,476.244,3179.507z"/>
			
				<linearGradient id="SVGID_00000170965064466993855400000001797039122421948088_" gradientUnits="userSpaceOnUse" x1="1097.1841" y1="1700.0695" x2="2484.8206" y2="1700.0695">
				<stop  offset="0.0036" style="stop-color:#E38DDD"/>
				<stop  offset="1" style="stop-color:#9571F6"/>
			</linearGradient>
			<path style="fill:url(#SVGID_00000170965064466993855400000001797039122421948088_);" d="M2279.967,1207.071
				c-270.816-283.498-711.724-297.33-983.434-20.377c-276.697,282.035-263.437,747.123,27.847,1027.908
				c284.444,274.192,721.271,261.88,977.557-17.249C2553.794,1923.048,2544.624,1484.121,2279.967,1207.071z M1403.201,2131.496
				c-242.725-235.576-253.558-624.321-22.966-860.662c227.109-232.771,597.118-222.938,825.449,14.558
				c223.95,232.941,231.902,603.237,18.822,834.126C2008.273,2353.823,1641.143,2362.429,1403.201,2131.496z"/>
			
				<linearGradient id="SVGID_00000030451185902141749290000010436294734712206258_" gradientUnits="userSpaceOnUse" x1="441.5711" y1="2661.8337" x2="1462.1624" y2="2661.8337">
				<stop  offset="0.0036" style="stop-color:#E38DDD"/>
				<stop  offset="1" style="stop-color:#9571F6"/>
			</linearGradient>
			<path style="opacity:0.3;fill:url(#SVGID_00000030451185902141749290000010436294734712206258_);" d="M1364.824,2128.982
				l-115.604,121.508c15.603,49.961,11.401,86.015,1.439,112.161c-37.478,98.364-167.736,87.847-260.382,230.723
				c-46.489,71.696-21.578,86.507-69.816,145.466c-79.748,97.473-157.614,68.941-227.625,156.205
				c-70.815,88.266-35.181,172.336-88.663,198.836c-22.88,11.337-60.579,11.346-127.048-31.854l-18.963,19.932
				c-23.124,24.306-21.928,61.85,2.661,83.79l15.42,13.757c24.51,21.866,62.975,19.859,85.927-4.415l899.992-951.859
				L1364.824,2128.982z"/>
			<path style="fill:#9FA8AD;" d="M1816.685,1096.975v3.422h0.002c79.987,0,158.271,16.018,232.678,47.609
				c76.832,32.621,145.711,80.322,204.726,141.777c111.292,115.895,174.55,268.57,178.124,429.899
				c3.571,161.197-52.813,313.257-158.763,428.17c-55.655,60.364-121.665,107.2-196.194,139.209
				c-72.2,31.009-148.999,46.732-228.264,46.732c-155.961,0-305.311-61.513-420.54-173.208
				c-62.223-60.317-110.811-131.181-144.411-210.625c-32.435-76.69-49.458-157.721-50.596-240.843
				c-2.259-165.057,58.551-319.495,171.227-434.864c109.486-112.102,255.793-173.846,411.97-173.857L1816.685,1096.975
				L1816.685,1096.975z M1816.643,1096.975c-150.478,0.011-299.958,57.694-414.418,174.889
				c-238.974,244.685-227.705,647.341,23.847,891.18c120.383,116.692,272.617,174.172,422.921,174.172
				c157.365,0,312.616-63.01,426.974-187.043c220.217-238.845,212.034-621.742-19.409-862.759
				C2135.325,1161.164,1975.425,1096.963,1816.643,1096.975L1816.643,1096.975z"/>
			
				<linearGradient id="SVGID_00000142173114514352081050000010174876129004616860_" gradientUnits="userSpaceOnUse" x1="2901.2947" y1="2566.0242" x2="2207.5693" y2="1789.2893" gradientTransform="matrix(0.9957 -0.0928 0.0928 0.9957 -742.1433 -52.4408)">
				<stop  offset="0" style="stop-color:#AA80F9"/>
				<stop  offset="0.9964" style="stop-color:#6165D7"/>
			</linearGradient>
			<path style="fill:url(#SVGID_00000142173114514352081050000010174876129004616860_);" d="M2317.226,1223.449
				c-270.817-283.498-711.724-297.33-983.435-20.377c-276.697,282.036-263.437,747.124,27.847,1027.908
				c284.444,274.192,721.271,261.88,977.558-17.249C2591.053,1939.426,2581.882,1500.5,2317.226,1223.449z M1440.459,2147.875
				c-242.725-235.576-253.558-624.321-22.966-860.662c227.109-232.771,597.118-222.938,825.449,14.558
				c223.95,232.941,231.902,603.237,18.823,834.126C2045.532,2370.201,1678.402,2378.808,1440.459,2147.875z"/>
			
				<linearGradient id="SVGID_00000173856641385750340120000008039813686168148106_" gradientUnits="userSpaceOnUse" x1="1881.4935" y1="1432.1554" x2="2822.3228" y2="2467.8586" gradientTransform="matrix(0.9957 -0.0928 0.0928 0.9957 -742.1433 -52.4408)">
				<stop  offset="0.0036" style="stop-color:#E38DDD"/>
				<stop  offset="1" style="stop-color:#9571F6"/>
			</linearGradient>
			<path style="opacity:0.3;fill:url(#SVGID_00000173856641385750340120000008039813686168148106_);" d="M2290.998,1251.103
				c-255.829-267.205-671.65-279.543-927.538-18.208c-260.311,265.853-247.923,703.858,26.102,968.644
				c267.956,258.922,680.145,247.996,922.309-15.276C2550.079,1927.291,2541.33,1512.565,2290.998,1251.103z M1440.459,2147.875
				c-242.725-235.576-253.558-624.321-22.966-860.662c227.109-232.771,597.118-222.938,825.449,14.558
				c223.95,232.941,231.902,603.237,18.823,834.126C2045.532,2370.201,1678.402,2378.808,1440.459,2147.875z"/>
		</g>
		<g>
			<path style="fill:#26264F;" d="M2221.227,1759.578c-2.571,0.703-4.745,2.421-6.022,4.76c-1.277,2.339-1.548,5.097-0.749,7.64
				l55.936,178.065c1.6,5.092,6.979,7.97,12.103,6.476l129.909-37.89c5.174-1.509,8.161-6.911,6.688-12.096l-50.364-177.205
				c-1.47-5.173-6.832-8.197-12.02-6.779L2221.227,1759.578z"/>
			
				<linearGradient id="SVGID_00000105426155091707349170000008328175722604321430_" gradientUnits="userSpaceOnUse" x1="2189.427" y1="1628.5829" x2="2472.988" y2="2089.4976">
				<stop  offset="0" style="stop-color:#FF9085"/>
				<stop  offset="1" style="stop-color:#FB6FBB"/>
			</linearGradient>
			<path style="fill:url(#SVGID_00000105426155091707349170000008328175722604321430_);" d="M2231.562,1768.233
				c-2.292,0.627-4.231,2.159-5.37,4.245c-1.139,2.086-1.38,4.545-0.668,6.813l49.883,158.794c1.427,4.541,6.223,7.108,10.793,5.775
				l115.85-33.79c4.615-1.346,7.278-6.164,5.964-10.787l-44.914-158.028c-1.311-4.613-6.093-7.31-10.719-6.045L2231.562,1768.233z"
				/>
			<path style="opacity:0.75;fill:#F4F7FA;" d="M2248.889,1777.079c-1.765,0.483-3.26,1.659-4.144,3.261
				c-0.884,1.602-1.081,3.494-0.548,5.245l15.785,51.791c1.064,3.492,4.705,5.511,8.231,4.566l92.448-24.798
				c1.746-0.468,3.232-1.615,4.128-3.185c0.896-1.57,1.126-3.433,0.64-5.174l-14.672-52.566c-1.001-3.588-4.713-5.693-8.307-4.711
				L2248.889,1777.079z"/>
			<path style="opacity:0.75;fill:#F4F7FA;" d="M2272.374,1859.712c-1.821,0.498-3.364,1.712-4.275,3.365
				c-0.912,1.653-1.116,3.605-0.565,5.411l16.287,53.44c1.098,3.603,4.855,5.687,8.493,4.711l95.393-25.588
				c1.802-0.483,3.335-1.667,4.259-3.287c0.924-1.62,1.162-3.543,0.66-5.339l-15.138-54.241c-1.033-3.703-4.864-5.875-8.572-4.861
				L2272.374,1859.712z"/>
			
				<linearGradient id="SVGID_00000152264894189703295100000018125323019449938101_" gradientUnits="userSpaceOnUse" x1="2915.8171" y1="2234.4187" x2="3012.1277" y2="1849.1747">
				<stop  offset="0" style="stop-color:#FFC444"/>
				<stop  offset="0.9964" style="stop-color:#F36F56"/>
			</linearGradient>
			<path style="fill:url(#SVGID_00000152264894189703295100000018125323019449938101_);" d="M2977.188,1850.939
				c7.309,2.762,118.777,47.092,141.689,163.433c1.851,9.399,19.759,109.354-48.028,179.967
				c-76.01,79.181-222.375,77.218-280.471,11.024c-13.548-15.436-20.696-32.545-24.699-46.92l0,0l15.308-40.669
				c18.678-22.548,44.109-27.891,57.691-31.239c33.483-8.251,58.763,6.662,77.938-9.484c10.611-8.933,12.718-21.791,14.601-33.276
				c6.414-39.121-15.667-63.201-17.274-87.326c-1.202-18.035-7.515-57.552,16.025-83.32
				C2944.873,1856.811,2965.52,1852.368,2977.188,1850.939z"/>
			
				<linearGradient id="SVGID_00000010276099439172356320000014656654036566990524_" gradientUnits="userSpaceOnUse" x1="2671.0891" y1="3326.4614" x2="2716.7759" y2="3367.0999" gradientTransform="matrix(0.9902 -0.14 0.14 0.9902 -102.8428 206.9384)">
				<stop  offset="0" style="stop-color:#444B8C"/>
				<stop  offset="0.9964" style="stop-color:#26264F"/>
			</linearGradient>
			<path style="fill:url(#SVGID_00000010276099439172356320000014656654036566990524_);" d="M3020.62,3147.519
				c1.301-7.162,24.43-13.645,35.883-4.052c5.686,4.762,9.603,14.418,6.313,18.78c-1.198,1.587,3.705,4.377-0.992,4.431
				C3046.243,3166.86,3019.328,3154.635,3020.62,3147.519z"/>
			
				<linearGradient id="SVGID_00000109011577143972917230000000324666544390861221_" gradientUnits="userSpaceOnUse" x1="1789.8324" y1="3367.1606" x2="1789.8324" y2="3287.5693" gradientTransform="matrix(0.9902 -0.14 0.14 0.9902 813.3583 77.4224)">
				<stop  offset="0" style="stop-color:#FFC444"/>
				<stop  offset="0.9964" style="stop-color:#F36F56"/>
			</linearGradient>
			<path style="fill:url(#SVGID_00000109011577143972917230000000324666544390861221_);" d="M3044.864,3150.125l23.788-3.363
				c-11.021-13.268-8.981-55.523-8.981-55.523l-25.297,5.647c0,0,2.882,11.599,7.786,28.707
				C3043.838,3131.449,3044.588,3140.615,3044.864,3150.125z"/>
			
				<linearGradient id="SVGID_00000079483978470971353170000000718620370160079021_" gradientUnits="userSpaceOnUse" x1="2675.6826" y1="3321.2991" x2="2721.3689" y2="3361.937" gradientTransform="matrix(0.9902 -0.14 0.14 0.9902 -102.8428 206.9384)">
				<stop  offset="0" style="stop-color:#444B8C"/>
				<stop  offset="0.9964" style="stop-color:#26264F"/>
			</linearGradient>
			<path style="fill:url(#SVGID_00000079483978470971353170000000718620370160079021_);" d="M3042.754,3147.195
				c0,0,28.639-6.598,31.737-0.918c3.097,5.682,5.502,20.892-12.667,20.401C3043.654,3166.188,3041.14,3152.012,3042.754,3147.195z"
				/>
			
				<linearGradient id="SVGID_00000046327174759217122740000008349617618380086955_" gradientUnits="userSpaceOnUse" x1="2684.4043" y1="3152.1096" x2="2730.093" y2="3192.75">
				<stop  offset="0" style="stop-color:#444B8C"/>
				<stop  offset="0.9964" style="stop-color:#26264F"/>
			</linearGradient>
			<path style="fill:url(#SVGID_00000046327174759217122740000008349617618380086955_);" d="M2694.23,3174.375
				c2.29-6.909,26.1-10.092,36.097,1.01c4.963,5.512,7.49,15.621,3.622,19.478c-1.408,1.404,3.056,4.853-1.603,4.249
				C2716.893,3197.113,2691.953,3181.241,2694.23,3174.375z"/>
			
				<linearGradient id="SVGID_00000070839813175415883350000013443432999237786768_" gradientUnits="userSpaceOnUse" x1="1492.1624" y1="509.0768" x2="1542.4165" y2="551.8608" gradientTransform="matrix(0.1359 0.9907 0.9907 -0.1359 1532.756 497.6357)">
				<stop  offset="0" style="stop-color:#FFC444"/>
				<stop  offset="0.9964" style="stop-color:#F36F56"/>
			</linearGradient>
			<path style="fill:url(#SVGID_00000070839813175415883350000013443432999237786768_);" d="M2282.453,1962.211l-21.742-10.414
				c-3.376-2.699-8.543-7.491-12.459-14.835c-6.445-12.089-6.343-25.173-6.259-25.186c0.051-0.007-0.991-17.598,6.473-20.576
				c0.978-0.39,2.107-0.515,3.409-0.304l7.734,20.366c0,0,1.239,8.86,15.21,18.056c13.852,12.064,19.43,23.091,19.43,23.091
				L2282.453,1962.211z"/>
			
				<linearGradient id="SVGID_00000009588215978838258430000007445062959184908435_" gradientUnits="userSpaceOnUse" x1="1803.1036" y1="3192.8311" x2="1803.1036" y2="3113.2363" gradientTransform="matrix(1 0 0 1 925.3102 0)">
				<stop  offset="0" style="stop-color:#FFC444"/>
				<stop  offset="0.9964" style="stop-color:#F36F56"/>
			</linearGradient>
			<path style="fill:url(#SVGID_00000009588215978838258430000007445062959184908435_);" d="M2717.87,3180.35h24.023
				c-9.054-14.681-1.12-56.234-1.12-56.234l-25.839,2.051c0,0,1.23,11.887,3.692,29.514
				C2719.468,3161.714,2718.928,3170.895,2717.87,3180.35z"/>
			
				<linearGradient id="SVGID_00000134969490787006560670000000503474460283943601_" gradientUnits="userSpaceOnUse" x1="-448.917" y1="3229.3301" x2="-746.8397" y2="2026.4707" gradientTransform="matrix(-1 0 0 1 2275.7473 0)">
				<stop  offset="0" style="stop-color:#444B8C"/>
				<stop  offset="0.9964" style="stop-color:#26264F"/>
			</linearGradient>
			<path style="fill:url(#SVGID_00000134969490787006560670000000503474460283943601_);" d="M2655.609,2271.863
				c-11.129,36.75-27.021,96.065-37.252,170.483c-29.181,212.265,32.841,219.036,21.258,454.254
				c-3.697,75.082,65.047,248.213,71.106,252.037c2.933,0.284,6.114,0.475,9.508,0.373c5.979-0.181,14.41-1.096,24.213-4.036
				c10.89-1.876,50.15-108.218,41.051-171.444c-6.441-44.749-4.573-92.775-0.84-188.826c0.604-15.563,40.424-302.793,40.424-302.793
				l0,0c12.112,106.317,26.042,196.652,38.118,266.69c38.799,225.021,164.953,361.219,171.533,363.404
				c1.3,0.521,13.137,4.822,22.816-1.557c4.307-2.839,5.773-6.503,5.773-6.503c3.375-2.642-0.994-224.657-39.472-391.743
				c-55.852-242.523-31.532-299.27-49.226-407.596C2959.308,2210.873,2655.609,2271.863,2655.609,2271.863z"/>
			
				<linearGradient id="SVGID_00000142145459647962740900000003111391016656208034_" gradientUnits="userSpaceOnUse" x1="2544.2498" y1="1866.7151" x2="3122.1162" y2="2325.3394">
				<stop  offset="0" style="stop-color:#FFC444"/>
				<stop  offset="0.9964" style="stop-color:#F36F56"/>
			</linearGradient>
			<path style="fill:url(#SVGID_00000142145459647962740900000003111391016656208034_);" d="M2881.202,1832.009
				c-37.081-1.09-108.9-13.198-155.844,29.041c-0.817,0.733-4.612,4.89-9.347,10.439c-4.396,5.151-19.475,23.183-33.146,47.56
				c-9.902,17.655-18.839,38.234-27.855,68.906c-15.902,54.091-20.466,100.151-21.991,120.22
				c-8.581,112.855-0.072,164.923,7.649,200.33c33.526,17.221,119.916,48.036,222.85,32.725
				c47.007-6.993,84.628-22.635,111.1-36.598c-26.709-80.87-5.754-124.146,4.131-164.031c14.098-56.875,14.324-52.576,25.931-97.755
				c19.152-74.548,22.293-150.723,9.135-166.31C2978.333,1834.506,2914.402,1832.987,2881.202,1832.009z"/>
			
				<linearGradient id="SVGID_00000090985153505451438010000004314493849629131952_" gradientUnits="userSpaceOnUse" x1="2688.9973" y1="3146.946" x2="2734.686" y2="3187.5862">
				<stop  offset="0" style="stop-color:#444B8C"/>
				<stop  offset="0.9964" style="stop-color:#26264F"/>
			</linearGradient>
			<path style="fill:url(#SVGID_00000090985153505451438010000004314493849629131952_);" d="M2716.19,3177.153
				c0,0,29.281-2.524,31.553,3.534c2.272,6.058,2.524,21.456-15.397,18.427C2714.423,3196.083,2713.919,3181.697,2716.19,3177.153z"
				/>
			
				<linearGradient id="SVGID_00000127741628591627877140000010955914063754046649_" gradientUnits="userSpaceOnUse" x1="2478.2217" y1="1949.9109" x2="3056.0889" y2="2408.5359">
				<stop  offset="0" style="stop-color:#FFC444"/>
				<stop  offset="0.9964" style="stop-color:#F36F56"/>
			</linearGradient>
			<path style="fill:url(#SVGID_00000127741628591627877140000010955914063754046649_);" d="M2783.082,1845.536
				c-40.558-26.387-146.61,56.291-178.716,79.093c-124.498,88.416-109.574,143.569-166.115,116.036
				c-38.233-18.615-43.422-74.733-108.763-95.84c-11.552-3.731-21.489-5.24-27.885-5.932c-0.087,0.047-21.575,11.478-21.67,11.506
				c-7.632,2.472-15.264,4.94-21.668,11.508c-6.286,13.046-12.046,28.937-14.94,47.464c0.618,6.581,1.911,17.491,4.874,30.667
				c2.453,10.904,31.158,130.234,130.935,166.984c18.33,6.75,33.559,8.691,41.244,9.622c32.787,3.975,62.505-0.884,113.31-18.391
				c86.057-29.652,151.757-57.468,209.848-125.456c2.767-3.238,5.004-6.417,7.236-9.84
				C2793.973,1996.711,2822.236,1871.006,2783.082,1845.536z"/>
			<g>
				
					<linearGradient id="SVGID_00000031895936231307497030000013633675616783799737_" gradientUnits="userSpaceOnUse" x1="2729.3394" y1="1702.4965" x2="2976.7637" y2="2013.7878">
					<stop  offset="0" style="stop-color:#FFC444"/>
					<stop  offset="0.9964" style="stop-color:#F36F56"/>
				</linearGradient>
				<path style="fill:url(#SVGID_00000031895936231307497030000013633675616783799737_);" d="M2776.845,1789.496
					c-11.486-19.42-6.369-41.603-5.214-46.397c4.83-20.07,6.627-23.114,10.352-27.361l5.267-5.569c0,0,0.327-0.244,0.674-0.483
					c3.662-2.519,17.339-6.613,20.291-6.761c9.432-0.474,28.624,33.346,39.614,85.465c0.892,1.86,1.776,3.741,2.653,5.64
					c5.45,11.823,10.127,23.452,14.141,34.79c63.737,5.389,72.582,12.867,72.866,17.185c0.598,9.091-35.718,19.595-63.029,23.594
					c-59.563,8.721-120.791-6.988-120.511-18.095c0.122-4.836,11.961-11.137,62.455-17.75c-1.181-8.355-2.362-16.711-3.543-25.066
					C2808.756,1807.777,2785.305,1803.803,2776.845,1789.496z"/>
				<path style="fill:#26264F;" d="M2764.863,1700.499c4.297,15.909,16.334,30.914,20.884,32.628
					c0.587,0.222,3.951,1.676,7.447,4.762c0.476,0.42,0.935,0.938,1.409,1.64c6.163,9.103-6.644,25.166-2.367,28.838
					c3.103,2.663,12.785-4.585,14.824-2.115c1.921,2.324-5.628,10.212-3.403,13.016c1.68,2.117,6.641-1.551,11.117,1.184
					c2.23,1.363,2.104,2.948,5.441,8.041c1.887,2.882,4.269,5.949,5.914,7.57c7.995,7.882,24.491,7.142,26.493,2.602
					c0.557-1.266-0.394-1.951-0.474-5.677c0,0-0.074-3.453,1.183-7.805c1.796-6.216,8.557-12.122,14.902-19.869
					c11.75-14.349,13.323-24.328,13.705-27.661c0.135-1.186,0.182-2.067,0.215-2.702c0.653-12.744-3.926-29.988-12.028-39.182
					c-13.574-15.404-31.265-1.657-52.276-14.902c-24.243-15.282-20.425-46.021-31.46-46.363
					C2774.225,1634.127,2756.917,1671.084,2764.863,1700.499z"/>
				
					<linearGradient id="SVGID_00000017490051622131572120000001052011157323166644_" gradientUnits="userSpaceOnUse" x1="2739.7722" y1="1694.2006" x2="2987.2039" y2="2005.5011">
					<stop  offset="0" style="stop-color:#FFC444"/>
					<stop  offset="0.9964" style="stop-color:#F36F56"/>
				</linearGradient>
				<path style="fill:url(#SVGID_00000017490051622131572120000001052011157323166644_);" d="M2796.962,1763.098
					c2.473-6.403,10.674-3.192,12.563,3.735c1.89,6.927-2.909,15.933-9.796,16.302
					C2792.842,1783.503,2793.635,1771.715,2796.962,1763.098z"/>
			</g>
			<path style="fill:#26264F;" d="M2797.033,1750.647l-5.914,14.191c0,0-5.914,17.032-13.719,10.646
				c-6.377-5.218-7.545-4.752-7.758-4.406c-0.041,0.066-0.035,0.147-0.049,0.147c-0.087,0-0.174-3.397-0.236-6.388
				c-1.487,4.103-3.312,10.6-3.312,18.688c0.001,7.856,0.001,16.267,6.149,22.708c0.356,0.372,7.055,7.187,16.085,6.86
				c0,0,3.551-0.129,17.031-6.386c0,0-18.45-7.096-19.396-9.698c-2.572-7.075,6.434-13.67,9.935-30.516
				C2797.201,1759.997,2797.234,1754.424,2797.033,1750.647z"/>
		</g>
	</g>
</g>
</svg>
